<?xml version="1.0" encoding="UTF-8" standalone="no"?>
<!-- Uploaded to: SVG Repo, www.svgrepo.com, Generator: SVG Repo Mixer Tools -->

<svg
   fill="#000000"
   width="685.65143"
   height="617.16577"
   viewBox="0 0 11.9989 10.800401"
   role="img"
   focusable="false"
   aria-hidden="true"
   version="1.1"
   id="svg1"
   xmlns="http://www.w3.org/2000/svg"
   xmlns:svg="http://www.w3.org/2000/svg">
  <defs
     id="defs1" />
  <path
     d="M 6.1511,10.7903 C 5.9712,10.7653 5.6264,10.688 5.372,10.6163 4.2238,10.2929 3.2824,9.7270997 2.6878,9.0032997 c -0.09,-0.1095 -0.206,-0.2684 -0.2002,-0.2741 0,0 0.055,9e-4 0.1179,0.01 0.1339,0.013 0.3095,0.01 0.3869,-0.014 0.1693,-0.045 0.2743,-0.1535 0.3012,-0.3113 0.01,-0.041 0.01,-0.6813997 0.01,-2.2312997 V 4.0092 L 3.2786,3.9382 C 3.2186,3.7694 3.122,3.6974 2.9251,3.6756 2.8199,3.6636 2.6759,3.7206 2.4899,3.8461 1.814,4.3031 0.9384,5.4208 0.073,6.9315 0.034,6.9995 10e-4,7.0542 0,7.053 0,7.053 0,6.96 0.01,6.8493 0.065,5.4863 0.6524,4.059 1.686,2.7778 1.9377,2.4657 2.3173,2.0623 2.6146,1.7907 3.5757,0.9126 4.6375,0.3054 5.7059,0.023 L 5.7919,0 5.7639,0.024 C 5.7489,0.038 5.6779,0.099 5.6067,0.1609 5.4612,0.2874 5.2099,0.5347 5.0923,0.6673 4.783,1.0161 4.5999,1.3264 4.5623,1.5654 c -0.021,0.1345 0,0.4327 0.05,0.6072 0.055,0.2071 0.1569,0.341 0.2989,0.3933 0.04,0.015 0.073,0.019 0.1382,0.019 0.098,-1e-4 0.1691,-0.017 0.2677,-0.062 l 0.065,-0.03 v 2.7467 2.7466 l 0.029,0.06 c 0.083,0.1693 0.2788,0.2441 0.6697,0.2564 0.1942,0.01 0.2573,0 0.4057,-0.048 C 6.7263,8.1786 7.0207,8.0287 7.3519,7.8139 L 7.4469,7.7519 7.447,5.5095 C 7.4471,3.1008 7.447,3.2179 7.402,3.0767 7.318,2.8231 7.052,2.4661 6.7317,2.1767 L 6.6271,2.0827 h 0.052 c 0.077,0 0.27,0.023 0.4031,0.056 0.2532,0.064 0.5135,0.1777 0.7124,0.3119 l 0.065,0.044 0.023,-0.039 C 7.9196,2.3916 8.0194,2.2714 8.1165,2.1722 8.6391,1.6385 9.4748,1.1997 10.5602,0.889 c 0.096,-0.027 0.1781,-0.05 0.1824,-0.05 0,0 -0.046,0.072 -0.1121,0.1597 -0.3868,0.515 -0.7479,1.0738 -0.9321,1.4422 -0.094,0.1875 -0.1378,0.2993 -0.1581,0.4005 -0.017,0.086 -0.031,4.8006 -0.015,4.8624 0.03,0.1108 0.1558,0.1744 0.3695,0.187 0.1092,0.01 0.2144,-0.011 0.3712,-0.063 0.5493,-0.1805 1.0952,-0.533 1.5785,-1.0194 l 0.1544,-0.1553 -0.011,0.043 c -0.034,0.1295 -0.1689,0.3752 -0.378,0.6904 -0.6558,0.9887 -1.587,1.9992997 -2.4662,2.6767 -0.1486,0.1145 -0.4347,0.3156 -0.449,0.3156 -0.01,0 -0.2886,-0.2784 -0.6291,-0.6187003 -0.5288,-0.5284 -0.6208,-0.6167 -0.63,-0.6046 -0.01,0.01 -0.2856,0.3814 -0.6213,0.8302 C 6.4785,10.4345 6.1991,10.8012 6.1933,10.8004 c -0.01,-7e-4 -0.023,0 -0.037,-0.01 z"
     id="path1"
     style="fill:#9bb0c1;fill-opacity:1" />
</svg>
