<?xml version="1.0" encoding="UTF-8" standalone="no"?>
<svg
   shape-rendering="geometricPrecision"
   text-rendering="geometricPrecision"
   image-rendering="optimizeQuality"
   fill-rule="evenodd"
   clip-rule="evenodd"
   viewBox="0 0 512 360.726"
   version="1.1"
   id="svg1"
   sodipodi:docname="youtube.svg"
   inkscape:version="1.4.3 (0d15f75042, 2025-12-25)"
   xmlns:inkscape="http://www.inkscape.org/namespaces/inkscape"
   xmlns:sodipodi="http://sodipodi.sourceforge.net/DTD/sodipodi-0.dtd"
   xmlns="http://www.w3.org/2000/svg"
   xmlns:svg="http://www.w3.org/2000/svg">
  <defs
     id="defs1" />
  <sodipodi:namedview
     id="namedview1"
     pagecolor="#ffffff"
     bordercolor="#000000"
     borderopacity="0.25"
     inkscape:showpageshadow="2"
     inkscape:pageopacity="0.0"
     inkscape:pagecheckerboard="0"
     inkscape:deskcolor="#d1d1d1"
     inkscape:zoom="0.29296875"
     inkscape:cx="256"
     inkscape:cy="179.2"
     inkscape:window-width="1876"
     inkscape:window-height="996"
     inkscape:window-x="0"
     inkscape:window-y="0"
     inkscape:window-maximized="1"
     inkscape:current-layer="svg1" />
  <path
     fill="#fff"
     d="M456.035 10.769c22.031 5.926 39.377 23.386 45.265 45.56C512 96.516 512 180.363 512 180.363s0 83.846-10.7 124.037c-5.888 22.17-23.234 39.631-45.265 45.559-39.928 10.767-200.034 10.767-200.034 10.767s-160.107 0-200.035-10.767C33.937 344.031 16.587 326.57 10.7 304.4 0 264.209 0 180.363 0 180.363S0 96.516 10.7 56.329c5.887-22.174 23.237-39.634 45.266-45.56C95.894 0 256.001 0 256.001 0s160.106 0 200.034 10.769zm-252.398 245.72l133.818-76.122-133.818-76.131v152.253z"
     id="path1"
     style="fill:#0b0b0b;fill-opacity:1" />
</svg>
