<?xml version="1.0" encoding="UTF-8"?>
<svg id="Layer_2" data-name="Layer 2" xmlns="http://www.w3.org/2000/svg" viewBox="0 0 3971.56 3734.21">
  <defs>
    <style>
      .cls-1 {
        fill: #fff;
      }
    </style>
  </defs>
  <path d="M3971.56,0v3734.21H0V0h3971.56ZM3866.07,105.49H105.49v3523.24h3760.58V105.49Z"/>
  <path class="cls-1" d="M3866.07,105.49v3523.24H105.49V105.49h3760.58ZM3765.86,195.15H210.97v3338.64h3554.89V195.15Z"/>
  <path d="M3765.86,195.15v3338.64H210.97V195.15h3554.89ZM3707.84,253.17H263.72v3227.88h1308.03c1.93-51.69-2.52-104.12-.22-155.81,3.4-76.53,40.03-250.42-40.12-297-36.53-21.23-83.51-9.31-112.65-50.86-28.44-40.56-9.47-89.21-36.92-126.58-77.87-106.02-261.71-105.21-379.75-102.9l-.71,44.12-12.44,8.65-241.34-1.29-365.24-246.58-1.74-1354.7,319.31-195.04,302.23-.97,4.91,50.47c153.97,11.3,354.41-5.73,427.49-163.9l63.38-2.55v-52.8s-61.02-4.91-61.02-4.91c-13.84-55.24,6.99-76.49,39.75-113.87,28.84-32.9,65.37-63.22,100.07-89.81,35.6.28,73.72-6.45,108.19-7.84,185.9-7.53,368.87,5.88,554.24.44,42.84-1.26,89.34-10.17,133.43,3.27,12,3.66,50.7,38.39,61.68,49.08,13.35,13.02,80.08,85.33,83.36,95.97,3.59,11.64,8.2,48.13-1.45,54.86l-58.38,2.28v58.07c78.59-16.6,70.11,34.22,107.95,74.02,22.97,24.16,107.66,69.96,140.09,81.44,79.08,28,180.36,6.47,263.63,13.33-.1-18.64-5.55-42.83,18.58-47.35l225.45,1.05,375.65,246.72,2.53,1342.15c-1.27,10.23-8.84,15.17-16.05,20.87-84.45,66.65-209.64,116.17-297.63,182.33h-308.55v-42.19h-234.71c-45.28,0-137.04,57.86-163.17,95.27-30.09,43.08-12.89,106.84-42.91,141.69-33.85,39.29-95.3,16.41-120.72,48.06-43.96,54.74-42.35,207.34-39.99,276.91l10.77,165.92h1329.13V253.17ZM2394.54,780.6c-.37-27-34.13-38.88-44.45-63.67l-686.36-5.22c-34.26,1.45-51.49,44.99-70.88,68.89h801.7ZM1719.43,833.34h-79.11l-.03,47.5c26.83-2.43,52.37,8.55,79.17,5.27l-.02-52.77ZM2521.12,1044.31c-18.35-20.36-47.84-59.65-76.24-63.52-270.75,3.93-542.3-2.01-812.26-5.26-83.02-1-196.47-21.35-234.92,68.78h1123.43ZM907.18,1091.78h-181.96l-247.32,153.53-8.52,12.58-.18,1223.9c.63,8.48.78,21.2,6.84,27.47,8.27,8.55,60.3,36.34,76.3,47.62,27.69,19.52,206.91,154.12,220.35,154.12h134.49v-1619.21ZM3064.37,2711h176.69c21.89,0,210.28-138.08,250.35-150.5l10.62-15.75.37-1229.06c.3-8.1-2.19-12.97-7.88-18.5-14.35-13.94-62.83-38.59-83.71-53.42-25.89-18.39-194-146.71-206.67-146.71h-139.77v1613.94ZM2964.16,1133.98H1017.94v42.19h1946.22v-42.19ZM1366.07,1408.27c7.29-7.16-21.73-155.26-31.68-166.13-3.22-3.51-9.53-5.44-14.14-7.13l-41.2,28.95c-193.97-107.64-270.55,179.12-261.32,321.18,8.78,135.17,92.63,384.5,261.27,236.63,21.42-2.07,71.81,66.84,89.98,40.33l2.49-287.57c4-20.98,51.72-31.62,26.32-68.82-16.15-12.29-177.33-12.23-187.61,2.42-16.84,30.05,18.41,41.36,22.94,56.78,2.55,8.67,5.51,53.94,6.3,67.54,2.68,46.32.24,117.42-5.13,163.55-5.4,46.4-53.92,45.27-62.14-1.34-16.96-96.1.64-212.32,4.25-309.72,1.91-51.53-6.15-114.7-.34-163.84,4.79-40.45,42.97-55.88,77.71-35.27,47.8,28.36,43.31,131.94,112.31,122.44ZM1442.52,1856.56h168.78c31.35-25.84-13.19-62.14-13.19-65.93v-195.15c18.86-18.35,58.44-6.64,66.21,18.18,21.19,67.72-28.4,184.22,31.37,242.89h123.95c9.91-28.54-12.32-46.5-15.56-66.19-5.12-31.14,2.93-72.36-.31-105.17-6.52-65.99-41.81-97.27-100.14-121.39,146.83-35.92,141.92-253.18,7.26-302.62-46.42-17.04-197.19-23.94-246.01-15.19-22.04,3.95-46.62,27.17-30.68,48.02,6.3,8.24,20.47-.01,28.53,25.45,4.6,14.54,8.45,67.68,9.02,85.91,2.62,83.61-9.39,170.05-10.99,253.17-.68,35.6,10.56,98.72-.32,126.27-5.95,15.05-52.13,62.03-17.92,71.74ZM1846.01,1856.56h102.85c10-6.82,10.86-28.81,7.24-38.92-3.39-9.45-16.99-7.24-22.92-13.93-14.59-16.48-1.47-53.6-.5-74.09,5.24-7.79,95.43-8.04,100.88.04.61,15.71,8.55,35.74,7.94,50.33-1.14,27.33-37.26,42.33-26.72,76.57h184.6c9.37-36.89-13.87-49.98-25.26-77.59-9.66-23.41-15.66-59.37-20.54-84.94-11.27-59.02-43.2-430.02-68.85-444.06-53.99-11.97-110.34-2.99-164.92.03-10.28,40.28,16.31,46.52,26.16,75.68-31.02,141.3-40.72,290.73-69.89,431.75-2.26,10.92-3.39,24.7-7.75,34.45-9.14,20.46-32.23,30.99-22.33,64.7ZM2888.45,1294.08c-77.52-73.61-205.75-40.13-301.41-44.08-53.28,37.53,21.68,40.63,18.78,76.18-11.79,137.4,14.72,298.29-.29,432.82-4.69,42.01-31.73,44.65-36.01,64.49-7.94,36.84,30.83,35.94,59.78,38.28,46.29,3.75,176.42-2.55,217.17-20.05,143.67-61.71,143.29-451.43,41.98-547.64ZM2468.38,1534.82l-134.49-284.81h-108.12c-13.29,45.62,24.43,44.78,30.38,77.74,4.01,22.2.6,49.3,1.32,72.52,3.51,113.57-8.06,228.57-5.55,343.1.28,12.72,6.59,25.17,5.98,36.75-1.49,28.19-57.46,35.68-24.22,76.43h108.12c-1.34-11.85,2.84-27.83-.86-38.71-2.73-8.06-30.79-20.81-30.79-27.22v-271.63l150.25,332.35,60.72,5.21v-545.89c0-5.28,28.76-16.46,30.54-19.52,4.76-8.18-.88-30.23,1.1-41.14h-116.03c1.34,11.85-2.84,27.83.86,38.71,2.73,8.06,30.79,20.81,30.79,27.22v218.88ZM2535.7,1915.83c-20.7-22.03-39.64,19.85-48.83,20.45-22.23,1.44-39.93-18.92-63.19-21.82-164.1-20.47-212.19,235.56-203.4,356.34,6.68,91.72,57.71,280.02,176.78,271.56,36.5-2.59,55.21-29.71,84.47-45.71,18.13-.18,79.93,72.31,91.55,36.86,8.51-89.05-8.71-191.47.78-278.84,3.57-32.92,25.1-25.08,30.59-43.21,3.62-11.96,3.29-25.28-7.24-32.78-11.79-8.4-130.49-7.91-152.81-5.91-25.66,2.3-42,9-32.97,38.71,3.24,10.67,18.73,16.44,22.59,24.92,5.21,11.46,5.64,210.83,2.39,234.27-3.85,27.72-21.7,42.74-48.86,29.73-12.83-8.27-18.18-64.85-19.32-82.17-6.25-94.29,6.87-190.46,10.72-284.54,2.03-49.62-25.99-216.58,67.02-178.17,45.71,18.88,62.66,117.23,94.74,126.86,13.25,3.98,25.24,2.76,28.02-12.3,2.63-14.26-25.18-145.92-33.01-154.24ZM1533.38,1915.76c-210.35,43.01-210.77,653.15,51.59,626.45,121.47-12.36,166.62-187.45,171.33-287.49,6.12-129.92-44.63-375.41-222.92-338.95ZM1956.77,2465.74v-203.06c20.77-.05,42.95-4.02,58.14,13.07,34.69,39.05-21.28,210.44,39.44,255.92h123.95c9.91-28.54-12.32-46.5-15.56-66.19-5.12-31.14,2.93-72.36-.31-105.17-6.52-65.99-41.81-97.27-100.14-121.39,128.63-36.46,144.97-207.64,41.7-284.32-35.17-26.12-80.81-31.88-123.53-34.7-29.25-1.93-164.94-4.44-181.61,8.15-35.8,27.03,19.5,45.24,24.81,74.81,16.78,93.41-2.19,219.04-4.23,314.98-.77,36.46,8.59,97.49,5.39,126.27-2.89,26.05-58.66,68.1-24.96,83.64,14.12,6.51,157.2,6.91,171.64.28,2.77-1.27,6.21-.97,6.56-5.14,9.59-41.3-17.82-45.13-21.29-57.15ZM1218.37,2460.47v-234.71c78.78-19.19,29.54,69.22,100.21,58.02v-152.95l-36.23.68c-6.94,37.2-20.08,76.47-63.98,49.42v-210.97c75.62-55.82,59.15,128.28,123.49,82.33,8.99-6.42-11.36-121.1-26.79-126.29-76.14,5.06-167.8-9.71-242.01-1.12-7.32.85-14.63-.28-17.45,8.89-14.79,44.07,27.5,39.56,30.99,57.2l-4.95,480.47c-9.66,13.26-31.3,6.46-32.61,31.2-2.4,45.33,60.32,28.57,87.37,28.78,23.39.18,93.7,4.88,110.1-.62,11.67-3.91,16.91-26.94,13.38-37.78-4.56-14.01-36.77-10.29-41.53-32.55ZM2795.38,1962.04c64.53-13.43,52.03,50.49,79.09,81.78,23.8,27.52,44.84,17.39,41.63-20.44-1.27-14.95-16.9-98.26-28.41-98.26h-261.08c-13.84,48.97,27.54,44.59,34.63,73.5,10.84,138.22-3.53,275.6-3.23,414.58.02,11.01,5.85,21.58,5.31,31.14-2.05,36.31-59.78,41.88-36.71,87.33h266.35c19.43-9.76,34.29-137.2,29.02-142.42-73.07-17.08-47.98,73.29-84.62,97.36-10.1,6.64-41.98,14.39-41.98.23v-261.08l41.9,2.8,21.17,52.77,28.5,1.72c6.95-1.81,7.49-6.43,8.6-12.49,6.11-33.33,8.44-98.77-1.08-130.69-6.05-20.28-30.81-16.08-40.56-.61-7.75,12.3-4.27,38.14-14.56,44.73-9.49,6.08-43.98,8.07-43.98-3.06v-218.88ZM1017.85,2621.33v42.45h1946.4v-42.45H1017.85ZM1577.02,2827.03l-31.67-.03c1.78,29.42-11.52,83.1,31.67,84.42v-84.39ZM2278.5,2827.03h-611.82v79.11h611.82v-79.11ZM1751.03,3101.28h-21.03s-21.15,379.8-21.15,379.8h58.07s-15.89-379.8-15.89-379.8ZM1877.68,3481.07c-1.19-47.61,18.03-350.36-4.95-366.95l-53.13-2.31-5.27,369.26h63.35ZM1982.59,3480.47c9.18-7.74,17.66-211.77,16.32-239.35-.85-17.56-4.71-65.8-10.11-79.56-3.91-9.97-14.31-24.37-26.76-23.29l10.49,15.67c-13.67-1.66-14.62,18.09-15.69,29.17-9.3,96.49,21.53,200.58-5.36,297.91l31.1-.55ZM2088.63,3317.54v139.77c0,3.81-9.29,15.03-5.25,23.71l15.77.05c-2.14-48.46-3.22-96.57-5.25-145.13-.27-6.49,4.02-19.59-5.27-18.41Z"/>
  <path class="cls-1" d="M2535.7,1915.83c7.82,8.33,35.63,139.98,33.01,154.24-2.78,15.07-14.77,16.28-28.02,12.3-32.08-9.63-49.03-107.98-94.74-126.86-93-38.41-64.99,128.54-67.02,178.17-3.85,94.08-16.96,190.25-10.72,284.54,1.15,17.32,6.5,73.9,19.32,82.17,27.15,13,45.01-2.01,48.86-29.73,3.25-23.44,2.82-222.8-2.39-234.27-3.85-8.47-19.34-14.25-22.59-24.92-9.02-29.71,7.32-36.41,32.97-38.71,22.32-2,141.02-2.49,152.81,5.91,10.53,7.51,10.87,20.82,7.24,32.78-5.49,18.14-27.02,10.29-30.59,43.21-9.49,87.37,7.73,189.79-.78,278.84-11.62,35.44-73.41-37.05-91.55-36.86-29.26,16.01-47.97,43.12-84.47,45.71-119.07,8.46-170.11-179.84-176.78-271.56-8.79-120.77,39.29-376.81,203.4-356.34,23.26,2.9,40.96,23.26,63.19,21.82,9.19-.6,28.13-42.47,48.83-20.45Z"/>
  <path class="cls-1" d="M1366.07,1408.27c-69,9.5-64.5-94.08-112.31-122.44-34.74-20.61-72.92-5.18-77.71,35.27-5.81,49.14,2.24,112.31.34,163.84-3.6,97.4-21.2,213.62-4.25,309.72,8.23,46.62,56.74,47.74,62.14,1.34,5.37-46.13,7.8-117.22,5.13-163.55-.79-13.6-3.75-58.88-6.3-67.54-4.53-15.42-39.79-26.73-22.94-56.78,10.27-14.66,171.46-14.71,187.61-2.42,25.4,37.2-22.32,47.84-26.32,68.82l-2.49,287.57c-18.17,26.51-68.56-42.4-89.98-40.33-168.64,147.87-252.49-101.45-261.27-236.63-9.23-142.06,67.35-428.82,261.32-321.18l41.2-28.95c4.61,1.68,10.92,3.62,14.14,7.13,9.96,10.87,38.97,158.97,31.68,166.13Z"/>
  <path class="cls-1" d="M2468.38,1534.82v-218.88c0-6.4-28.06-19.15-30.79-27.22-3.69-10.89.48-26.86-.86-38.71h116.03c-1.98,10.91,3.66,32.95-1.1,41.14-1.78,3.06-30.54,14.24-30.54,19.52v545.89l-60.72-5.21-150.25-332.35v271.63c0,6.4,28.06,19.15,30.79,27.22,3.69,10.89-.48,26.86.86,38.71h-108.12c-33.24-40.75,22.73-48.24,24.22-76.43.61-11.59-5.7-24.03-5.98-36.75-2.52-114.53,9.06-229.53,5.55-343.1-.72-23.23,2.69-50.32-1.32-72.52-5.95-32.96-43.68-32.12-30.38-77.74h108.12l134.49,284.81Z"/>
  <path class="cls-1" d="M2795.38,1962.04v218.88c0,11.13,34.48,9.14,43.98,3.06,10.28-6.59,6.81-32.43,14.56-44.73,9.74-15.47,34.5-19.68,40.56.61,9.52,31.91,7.19,97.35,1.08,130.69-1.11,6.07-1.65,10.68-8.6,12.49l-28.5-1.72-21.17-52.77-41.9-2.8v261.08c0,14.16,31.88,6.41,41.98-.23,36.64-24.07,11.55-114.44,84.62-97.36,5.27,5.22-9.59,132.67-29.02,142.42h-266.35c-23.06-45.45,34.66-51.01,36.71-87.33.54-9.56-5.29-20.13-5.31-31.14-.3-138.99,14.07-276.36,3.23-414.58-7.08-28.9-48.46-24.52-34.63-73.5h261.08c11.51,0,27.14,83.31,28.41,98.26,3.22,37.84-17.83,47.96-41.63,20.44-27.06-31.29-14.55-95.22-79.09-81.78Z"/>
  <path class="cls-1" d="M1218.37,2460.47c4.76,22.26,36.97,18.54,41.53,32.55,3.53,10.84-1.71,33.87-13.38,37.78-16.4,5.5-86.71.79-110.1.62-27.05-.21-89.77,16.55-87.37-28.78,1.31-24.75,22.95-17.94,32.61-31.2l4.95-480.47c-3.48-17.64-45.78-13.13-30.99-57.2,2.82-9.17,10.13-8.04,17.45-8.89,74.21-8.59,165.87,6.18,242.01,1.12,15.43,5.19,35.78,119.87,26.79,126.29-64.35,45.95-47.88-138.15-123.49-82.33v210.97c43.91,27.05,57.04-12.22,63.98-49.42l36.23-.68v152.95c-70.67,11.21-21.43-77.2-100.21-58.02v234.71Z"/>
  <rect class="cls-1" x="1017.94" y="1133.98" width="1946.22" height="42.19"/>
  <rect class="cls-1" x="1017.85" y="2621.33" width="1946.4" height="42.45"/>
  <path class="cls-1" d="M2521.12,1044.31h-1123.43c38.46-90.13,151.9-69.78,234.92-68.78,269.96,3.25,541.51,9.19,812.26,5.26,28.41,3.88,57.9,43.16,76.24,63.52Z"/>
  <path class="cls-1" d="M2394.54,780.6h-801.7c19.39-23.89,36.62-67.44,70.88-68.89l686.36,5.22c10.33,24.8,44.09,36.67,44.45,63.67Z"/>
  <rect class="cls-1" x="1666.68" y="2827.03" width="611.82" height="79.11"/>
  <path class="cls-1" d="M1877.68,3481.07h-63.35s5.27-369.26,5.27-369.26l53.13,2.31c22.97,16.59,3.75,319.34,4.95,366.95Z"/>
  <polygon class="cls-1" points="1751.03 3101.28 1766.92 3481.07 1708.85 3481.07 1730 3101.27 1751.03 3101.28"/>
  <path class="cls-1" d="M1982.59,3480.47l-31.1.55c26.89-97.33-3.93-201.42,5.36-297.91,1.07-11.08,2.02-30.83,15.69-29.17l-10.49-15.67c12.45-1.07,22.85,13.33,26.76,23.29,5.4,13.75,9.25,62,10.11,79.56,1.34,27.58-7.14,231.61-16.32,239.35Z"/>
  <path class="cls-1" d="M1719.43,833.34l.02,52.77c-26.8,3.28-52.34-7.7-79.17-5.27l.03-47.5h79.11Z"/>
  <path class="cls-1" d="M1577.02,2827.03v84.39c-43.19-1.31-29.89-55-31.67-84.42l31.67.03Z"/>
  <path class="cls-1" d="M2088.63,3317.54c9.29-1.18,5,11.92,5.27,18.41,2.04,48.56,3.11,96.67,5.25,145.13l-15.77-.05c-4.04-8.68,5.25-19.9,5.25-23.71v-139.77Z"/>
  <path class="cls-1" d="M1956.77,2465.74c3.47,12.02,30.88,15.85,21.29,57.15-.36,4.17-3.79,3.87-6.56,5.14-14.45,6.63-157.53,6.23-171.64-.28-33.7-15.55,22.07-57.59,24.96-83.64,3.19-28.77-6.17-89.8-5.39-126.27,2.04-95.94,21.01-221.57,4.23-314.98-5.31-29.57-60.61-47.79-24.81-74.81,16.67-12.59,152.36-10.08,181.61-8.15,42.73,2.82,88.36,8.58,123.53,34.7,103.26,76.68,86.92,247.86-41.7,284.32,58.33,24.11,93.62,55.39,100.14,121.39,3.24,32.81-4.81,74.03.31,105.17,3.24,19.69,25.47,37.65,15.56,66.19h-123.95c-60.72-45.48-4.75-216.88-39.44-255.92-15.18-17.09-37.37-13.12-58.14-13.07v203.06ZM1956.77,1969.95v247.89c0,14.9,51.33,10.35,63.13-21.26,9.65-25.88,8.53-146.71,5.65-179.38-3.81-43.19-25.1-71.81-68.78-47.25Z"/>
  <path d="M1956.77,1969.95c43.68-24.56,64.98,4.07,68.78,47.25,2.88,32.66,4,153.5-5.65,179.38-11.79,31.61-63.13,36.16-63.13,21.26v-247.89Z"/>
  <path class="cls-1" d="M2888.45,1294.08c101.32,96.21,101.69,485.93-41.98,547.64-40.75,17.51-170.88,23.8-217.17,20.05-28.95-2.34-67.72-1.45-59.78-38.28,4.27-19.84,31.32-22.47,36.01-64.49,15.01-134.53-11.5-295.42.29-432.82,2.9-35.55-72.06-38.65-18.78-76.18,95.66,3.95,223.89-29.54,301.41,44.08ZM2737.37,1286.93v524.79c0,13.82,49.96,12.75,61.86-22.53,21.01-62.3,2.79-221.94,1.22-293.71-1.11-50.57,5.55-105.58,4.47-153.22-.94-41.2-26.74-61.86-67.55-55.33Z"/>
  <path d="M2737.37,1286.93c40.81-6.52,66.61,14.14,67.55,55.33,1.08,47.64-5.58,102.65-4.47,153.22,1.57,71.77,19.79,231.41-1.22,293.71-11.89,35.28-61.86,36.36-61.86,22.53v-524.79Z"/>
  <path class="cls-1" d="M1442.52,1856.56c-34.21-9.71,11.97-56.69,17.92-71.74,10.88-27.54-.36-90.67.32-126.27,1.6-83.12,13.61-169.56,10.99-253.17-.57-18.24-4.42-71.38-9.02-85.91-8.06-25.47-22.23-17.21-28.53-25.45-15.94-20.85,8.64-44.07,30.68-48.02,48.82-8.75,199.59-1.86,246.01,15.19,134.66,49.44,139.57,266.7-7.26,302.62,58.33,24.11,93.62,55.39,100.14,121.39,3.24,32.81-4.81,74.03.31,105.17,3.24,19.69,25.47,37.65,15.56,66.19h-123.95c-59.77-58.67-10.18-175.17-31.37-242.89-7.77-24.82-47.34-36.53-66.21-18.18v195.15c0,3.79,44.54,40.09,13.19,65.93h-168.78ZM1598.12,1294.84v247.89c22.45,20.45,56.93,1.76,65.06-24.6,7.53-24.4,6.78-167.52,1.15-194.57-8.21-39.41-60.37-47.44-66.21-28.73Z"/>
  <path d="M1598.12,1294.84c5.84-18.71,58-10.68,66.21,28.73,5.63,27.04,6.39,170.16-1.15,194.57-8.13,26.36-42.61,45.05-65.06,24.6v-247.89Z"/>
  <path class="cls-1" d="M907.18,1091.78v1619.21h-134.49c-13.45,0-192.66-134.6-220.35-154.12-15.99-11.27-68.03-39.06-76.3-47.62-6.06-6.27-6.21-18.99-6.84-27.47l.18-1223.9,8.52-12.58,247.32-153.53h181.96ZM826.89,1414.94c0-77.74-63.02-140.76-140.76-140.76s-140.76,63.02-140.76,140.76,63.02,140.76,140.76,140.76,140.76-63.02,140.76-140.76ZM824.93,2340.19c0-77.23-62.61-139.83-139.83-139.83s-139.83,62.61-139.83,139.83,62.61,139.83,139.83,139.83,139.83-62.61,139.83-139.83Z"/>
  <path d="M826.89,1414.94c0,77.74-63.02,140.76-140.76,140.76s-140.76-63.02-140.76-140.76,63.02-140.76,140.76-140.76,140.76,63.02,140.76,140.76ZM663.03,1340.8c-50.45,11.57-60.66,96.04-27.47,130.63,3.33-.01,29.73-33.78,41.16-38.31,19.41-7.69,40.27,15.84,58.6-14.77,31.51-52.6-19.31-89.69-72.29-77.55Z"/>
  <path class="cls-1" d="M663.03,1340.8c52.98-12.15,103.8,24.94,72.29,77.55-18.34,30.61-39.2,7.08-58.6,14.77-11.43,4.53-37.83,38.3-41.16,38.31-33.19-34.59-22.97-119.06,27.47-130.63Z"/>
  <path d="M824.93,2340.19c0,77.23-62.61,139.83-139.83,139.83s-139.83-62.61-139.83-139.83,62.61-139.83,139.83-139.83,139.83,62.61,139.83,139.83ZM628.14,2388.82c10.42,7.36,39.79-20.27,52.05-23.49,17.22-4.52,35.81,2.39,48-10.03,28.9-29.45,9.12-80.7-29.63-87.03-75.48-12.34-100.34,61.96-70.42,120.55Z"/>
  <path class="cls-1" d="M628.14,2388.82c-29.92-58.59-5.06-132.89,70.42-120.55,38.75,6.33,58.53,57.59,29.63,87.03-12.18,12.41-30.77,5.5-48,10.03-12.26,3.22-41.63,30.85-52.05,23.49Z"/>
  <path class="cls-1" d="M1533.38,1915.76c178.29-36.46,229.04,209.03,222.92,338.95-4.71,100.04-49.86,275.13-171.33,287.49-262.36,26.7-261.94-583.44-51.59-626.45ZM1591.6,1958.04c-38.83-17.26-53.77-.14-56.98,38.09-5.58,66.47,4.97,134.85,5.69,200.41.92,82.83-10.83,202.98-.48,280.02,3.71,27.62,35.46,38.96,52.37,14.91,19.87-28.28,5.95-51.36,5.69-78.24-1.32-136.69,22.02-287.15,5.05-421.7-1.4-11.13-6.84-23.24-11.34-33.48Z"/>
  <path d="M1591.6,1958.04c4.5,10.24,9.94,22.35,11.34,33.48,16.97,134.55-6.37,285.01-5.05,421.7.26,26.88,14.18,49.97-5.69,78.24-16.91,24.06-48.66,12.71-52.37-14.91-10.35-77.04,1.4-197.19.48-280.02-.73-65.56-11.28-133.94-5.69-200.41,3.21-38.22,18.15-55.35,56.98-38.09Z"/>
  <path class="cls-1" d="M1846.01,1856.56c-9.9-33.71,13.19-44.24,22.33-64.7,4.36-9.75,5.49-23.52,7.75-34.45,29.17-141.02,38.87-290.45,69.89-431.75-9.85-29.16-36.43-35.39-26.16-75.68,54.58-3.01,110.93-12,164.92-.03,25.65,14.05,57.58,385.04,68.85,444.06,4.88,25.58,10.88,61.53,20.54,84.94,11.39,27.61,34.63,40.7,25.26,77.59h-184.6c-10.54-34.23,25.58-49.23,26.72-76.57.61-14.6-7.33-34.63-7.94-50.33-5.46-8.08-95.65-7.82-100.88-.04-.97,20.49-14.09,57.61.5,74.09,5.93,6.7,19.53,4.48,22.92,13.93,3.62,10.11,2.77,32.1-7.24,38.92h-102.85ZM1943.58,1687.78h79.11l5.76-10.8-47.9-274.04-42.73,274.04,5.76,10.8Z"/>
  <polygon points="1943.58 1687.78 1937.82 1676.98 1980.56 1402.94 2028.46 1676.98 2022.7 1687.78 1943.58 1687.78"/>
  <path class="cls-1" d="M3064.37,2711v-1613.94h139.77c12.67,0,180.78,128.32,206.67,146.71,20.88,14.83,69.36,39.48,83.71,53.42,5.69,5.53,8.18,10.4,7.88,18.5l-.37,1229.06-10.62,15.75c-40.07,12.42-228.45,150.5-250.35,150.5h-176.69ZM3421.06,1420.79c0-77.4-62.75-140.15-140.15-140.15s-140.15,62.75-140.15,140.15,62.75,140.15,140.15,140.15,140.15-62.75,140.15-140.15ZM3419.72,2341.96c0-77.05-62.46-139.51-139.51-139.51s-139.51,62.46-139.51,139.51,62.46,139.51,139.51,139.51,139.51-62.46,139.51-139.51Z"/>
  <path d="M3421.06,1420.79c0,77.4-62.75,140.15-140.15,140.15s-140.15-62.75-140.15-140.15,62.75-140.15,140.15-140.15,140.15,62.75,140.15,140.15ZM3222.68,1471.52c4.77,3.57,36.98-24.82,47.42-28.96,27.5-10.91,65.66-.5,68.99-36.86,2.44-26.59-19.16-56.08-45.57-60.41-81.36-13.35-97.5,65.4-70.85,126.24Z"/>
  <path class="cls-1" d="M3222.68,1471.52c-26.65-60.84-10.51-139.59,70.85-126.24,26.41,4.33,48.01,33.82,45.57,60.41-3.33,36.36-41.49,25.96-68.99,36.86-10.45,4.14-42.66,32.53-47.42,28.96Z"/>
  <path d="M3419.72,2341.96c0,77.05-62.46,139.51-139.51,139.51s-139.51-62.46-139.51-139.51,62.46-139.51,139.51-139.51,139.51,62.46,139.51,139.51ZM3257.98,2269.09c-47.32,10.91-65.32,94.47-27.54,124.36,15.38-2.57,26.5-26.1,38.07-29.49,22.69-6.64,45.22,10.21,61.77-17.33,29.91-49.79-21.22-89.31-72.29-77.54Z"/>
  <path class="cls-1" d="M3257.98,2269.09c51.07-11.78,102.2,27.74,72.29,77.54-16.55,27.54-39.08,10.69-61.77,17.33-11.57,3.39-22.68,26.92-38.07,29.49-37.78-29.89-19.78-113.45,27.54-124.36Z"/>
</svg>